<?xml version="1.0"?>
<svg width="171" height="36" xmlns="http://www.w3.org/2000/svg" xmlns:svg="http://www.w3.org/2000/svg">
 <!-- Created with SVG-edit - https://github.com/SVG-Edit/svgedit-->

 <g class="layer">
  <title>Layer 1</title>
  <text fill="#ffffff" font-family="Sans-serif" font-size="24" font-style="italic" font-weight="bold" id="svg_1" stroke="#000000" stroke-width="0" text-anchor="middle" x="102.5" xml:space="preserve" y="26">InfiniteInfo</text>
  <path d="m20.23,-0.03c4.81,0 8.72,3.92 8.72,8.75c0,4.83 -3.91,8.75 -8.72,8.75c-4.81,0 -8.72,3.92 -8.72,8.75c0,4.83 3.91,8.75 8.72,8.75c9.63,0 17.45,-7.84 17.45,-17.5c0,-9.66 -7.82,-17.5 -17.45,-17.5zm0,6.02c-1.51,0 -2.73,1.22 -2.73,2.73c0,1.51 1.22,2.73 2.73,2.73c1.51,0 2.73,-1.22 2.73,-2.73c0,-1.51 -1.22,-2.73 -2.73,-2.73zm0,17.5c1.5,0 2.73,1.23 2.73,2.73c0,1.51 -1.22,2.73 -2.73,2.73c-1.5,0 -2.73,-1.23 -2.73,-2.73c0,-1.51 1.22,-2.73 2.73,-2.73zm17.05,-6.01c0,9.65 -7.8,17.48 -17.42,17.48c-9.62,0 -17.42,-7.82 -17.42,-17.48c0,-9.65 7.8,-17.48 17.42,-17.48c9.62,0 17.42,7.82 17.42,17.48z" fill="#7f00ff" id="svg_9" stroke="#000000" transform="matrix(1 0 0 1 0 0)"/>
 </g>
</svg>